<svg width="20" height="20" viewBox="0 0 20 20" fill="none" xmlns="http://www.w3.org/2000/svg">
<path d="M1.66699 10.5078H15.8337" stroke="white" stroke-width="1.5" stroke-linecap="round" stroke-linejoin="round"/>
<path d="M15.8337 14.5257C15.8087 16.9007 15.1586 17.5007 12.6836 17.5007H4.81702C2.30035 17.5007 1.66699 16.8757 1.66699 14.3923V8.56732C1.66699 6.31732 2.19199 5.59232 4.16699 5.47565C4.36699 5.46732 4.58368 5.45898 4.81702 5.45898H12.6836C15.2003 5.45898 15.8337 6.08398 15.8337 8.56732V14.5257Z" stroke="white" stroke-width="1.5" stroke-linecap="round" stroke-linejoin="round"/>
<path d="M18.3337 11.4333C18.3337 13.6833 17.8087 14.4083 15.8337 14.525V8.56667C15.8337 6.08333 15.2003 5.45833 12.6836 5.45833H4.81702C4.58368 5.45833 4.36699 5.46667 4.16699 5.475C4.19199 3.1 4.84202 2.5 7.31702 2.5H15.1836C17.7003 2.5 18.3337 3.125 18.3337 5.60833V11.4333Z" stroke="white" stroke-width="1.5" stroke-linecap="round" stroke-linejoin="round"/>
<path d="M4.375 14.8418H5.80831" stroke="white" stroke-width="1.5" stroke-linecap="round" stroke-linejoin="round"/>
<path d="M7.5918 14.8418H10.4585" stroke="white" stroke-width="1.5" stroke-linecap="round" stroke-linejoin="round"/>
</svg>
