<svg width="20" height="20" viewBox="0 0 20 20" fill="none" xmlns="http://www.w3.org/2000/svg">
<path fill-rule="evenodd" clip-rule="evenodd" d="M9.97493 18.3327C5.37256 18.3327 1.6416 14.6017 1.6416 9.99935C1.6416 5.39698 5.37256 1.66602 9.97493 1.66602C14.5773 1.66602 18.3083 5.39698 18.3083 9.99935C18.3083 14.6017 14.5773 18.3327 9.97493 18.3327Z" stroke="white" stroke-width="1.5" stroke-linecap="round" stroke-linejoin="round"/>
<path fill-rule="evenodd" clip-rule="evenodd" d="M10 13.75C7.92893 13.75 6.25 12.0711 6.25 10C6.25 7.92893 7.92893 6.25 10 6.25C12.0711 6.25 13.75 7.92893 13.75 10C13.75 12.0711 12.0711 13.75 10 13.75Z" stroke="white" stroke-width="1.5" stroke-linecap="round" stroke-linejoin="round"/>
<path d="M4.08301 4.10742L7.03301 7.04909" stroke="white" stroke-width="1.5" stroke-linecap="round" stroke-linejoin="round"/>
<path d="M4.08301 15.8909L7.03301 12.9492" stroke="white" stroke-width="1.5" stroke-linecap="round" stroke-linejoin="round"/>
<path d="M15.8748 15.8909L12.9248 12.9492" stroke="white" stroke-width="1.5" stroke-linecap="round" stroke-linejoin="round"/>
<path d="M15.8748 4.10742L12.9248 7.04909" stroke="white" stroke-width="1.5" stroke-linecap="round" stroke-linejoin="round"/>
</svg>
