<svg width="20" height="20" viewBox="0 0 20 20" fill="none" xmlns="http://www.w3.org/2000/svg">
<path d="M10.0003 2.5C9.08366 2.5 8.33366 3.25 8.33366 4.16667C8.33366 5.08333 9.08366 5.83333 10.0003 5.83333C10.917 5.83333 11.667 5.08333 11.667 4.16667C11.667 3.25 10.917 2.5 10.0003 2.5Z" stroke="white" stroke-width="1.5"/>
<path d="M10.0003 14.166C9.08366 14.166 8.33366 14.916 8.33366 15.8327C8.33366 16.7493 9.08366 17.4993 10.0003 17.4993C10.917 17.4993 11.667 16.7493 11.667 15.8327C11.667 14.916 10.917 14.166 10.0003 14.166Z" stroke="white" stroke-width="1.5"/>
<path d="M10.0003 8.33398C9.08366 8.33398 8.33366 9.08398 8.33366 10.0007C8.33366 10.9173 9.08366 11.6673 10.0003 11.6673C10.917 11.6673 11.667 10.9173 11.667 10.0007C11.667 9.08398 10.917 8.33398 10.0003 8.33398Z" stroke="white" stroke-width="1.5"/>
</svg>
