<svg width="22" height="22" viewBox="0 0 22 22" fill="none" xmlns="http://www.w3.org/2000/svg">
<path fill-rule="evenodd" clip-rule="evenodd" d="M10.9997 16.4173C8.00813 16.4173 5.58301 13.9922 5.58301 11.0007C5.58301 8.00911 8.00813 5.58398 10.9997 5.58398C13.9912 5.58398 16.4163 8.00911 16.4163 11.0007C16.4163 13.9922 13.9912 16.4173 10.9997 16.4173Z" stroke="white" stroke-width="1.5" stroke-linecap="round" stroke-linejoin="round"/>
<path d="M17.6574 5.75645L18.1878 6.28678L17.6574 5.75645ZM17.6574 4.34224L18.1878 3.81191L17.6574 4.34224ZM17.5491 5.86479L17.0188 5.33446V5.33446L17.5491 5.86479ZM16.1349 5.86479L16.6652 5.33446L16.6652 5.33446L16.1349 5.86479ZM16.1349 4.45058L16.6652 4.98091V4.98091L16.1349 4.45058ZM16.2432 4.34224L15.7129 3.81191V3.81191L16.2432 4.34224ZM5.86576 17.5481L5.33543 17.0178H5.33543L5.86576 17.5481ZM5.86577 16.1339L5.33544 16.6642L5.33544 16.6642L5.86577 16.1339ZM5.75743 17.6565L6.28776 18.1868L5.75743 17.6565ZM4.34322 17.6565L3.81289 18.1868L4.34322 17.6565ZM4.34322 16.2422L3.81289 15.7119H3.81289L4.34322 16.2422ZM4.45155 16.1339L4.98188 16.6642H4.98188L4.45155 16.1339ZM5.75743 4.34224L5.2271 4.87257L5.2271 4.87257L5.75743 4.34224ZM5.86577 4.45057L6.3961 3.92024L6.39609 3.92024L5.86577 4.45057ZM5.86577 5.86479L6.39609 6.39512L6.3961 6.39512L5.86577 5.86479ZM4.45155 5.86479L3.92122 6.39512L3.92122 6.39512L4.45155 5.86479ZM4.34322 5.75646L4.87355 5.22613L4.87355 5.22613L4.34322 5.75646ZM17.5491 16.1339L18.0794 15.6036L18.0794 15.6036L17.5491 16.1339ZM16.1349 16.1339L15.6046 15.6036L15.6046 15.6036L16.1349 16.1339ZM17.6574 16.2422L18.1878 15.7119H18.1878L17.6574 16.2422ZM17.6574 17.6565L18.1878 18.1868L18.1878 18.1868L17.6574 17.6565ZM16.2432 17.6565L15.7129 18.1868V18.1868L16.2432 17.6565ZM16.1349 17.5481L15.6046 18.0784L15.6046 18.0785L16.1349 17.5481ZM18.1878 6.28678C18.8712 5.60336 18.8712 4.49533 18.1878 3.81191L17.1271 4.87257C17.2247 4.9702 17.2247 5.12849 17.1271 5.22613L18.1878 6.28678ZM18.0794 6.39512L18.1878 6.28678L17.1271 5.22612L17.0188 5.33446L18.0794 6.39512ZM15.6046 6.39512C16.288 7.07854 17.396 7.07853 18.0794 6.39512L17.0188 5.33446C16.9211 5.43209 16.7628 5.43209 16.6652 5.33446L15.6046 6.39512ZM15.6046 3.92025C14.9211 4.60367 14.9211 5.71171 15.6046 6.39512L16.6652 5.33446C16.5676 5.23683 16.5676 5.07854 16.6652 4.98091L15.6046 3.92025ZM15.7129 3.81191L15.6046 3.92025L16.6652 4.98091L16.7735 4.87257L15.7129 3.81191ZM18.1878 3.81191C17.5043 3.12849 16.3963 3.1285 15.7129 3.81191L16.7735 4.87257C16.8712 4.77494 17.0295 4.77494 17.1271 4.87257L18.1878 3.81191ZM6.39609 18.0785C7.07951 17.395 7.07951 16.287 6.3961 15.6036L5.33544 16.6642C5.43307 16.7619 5.43307 16.9202 5.33543 17.0178L6.39609 18.0785ZM6.28776 18.1868L6.39609 18.0785L5.33543 17.0178L5.2271 17.1261L6.28776 18.1868ZM3.81289 18.1868C4.4963 18.8702 5.60434 18.8702 6.28776 18.1868L5.2271 17.1261C5.12947 17.2238 4.97118 17.2238 4.87355 17.1261L3.81289 18.1868ZM3.81289 15.7119C3.12947 16.3953 3.12947 17.5034 3.81289 18.1868L4.87355 17.1261C4.77592 17.0285 4.77592 16.8702 4.87355 16.7726L3.81289 15.7119ZM3.92122 15.6036L3.81289 15.7119L4.87355 16.7726L4.98188 16.6642L3.92122 15.6036ZM6.3961 15.6036C5.71268 14.9202 4.60464 14.9202 3.92122 15.6036L4.98188 16.6642C5.07951 16.5666 5.2378 16.5666 5.33544 16.6642L6.3961 15.6036ZM12.7503 2.66602C12.7503 1.69952 11.9668 0.916016 11.0003 0.916016V2.41602C11.1384 2.41602 11.2503 2.52794 11.2503 2.66602H12.7503ZM12.7503 2.73268V2.66602H11.2503V2.73268H12.7503ZM11.0003 4.48268C11.9668 4.48268 12.7503 3.69918 12.7503 2.73268H11.2503C11.2503 2.87075 11.1384 2.98268 11.0003 2.98268V4.48268ZM9.25032 2.73268C9.25032 3.69918 10.0338 4.48268 11.0003 4.48268V2.98268C10.8623 2.98268 10.7503 2.87075 10.7503 2.73268H9.25032ZM9.25032 2.66602V2.73268H10.7503V2.66602H9.25032ZM11.0003 0.916016C10.0338 0.916016 9.25032 1.69952 9.25032 2.66602H10.7503C10.7503 2.52794 10.8623 2.41602 11.0003 2.41602V0.916016ZM12.7503 19.266C12.7503 18.2995 11.9668 17.516 11.0003 17.516V19.016C11.1384 19.016 11.2503 19.1279 11.2503 19.266H12.7503ZM12.7503 19.3327V19.266H11.2503V19.3327H12.7503ZM11.0003 21.0827C11.9668 21.0827 12.7503 20.2992 12.7503 19.3327H11.2503C11.2503 19.4708 11.1384 19.5827 11.0003 19.5827V21.0827ZM9.25032 19.3327C9.25032 20.2992 10.0338 21.0827 11.0003 21.0827V19.5827C10.8623 19.5827 10.7503 19.4708 10.7503 19.3327H9.25032ZM9.25032 19.266V19.3327H10.7503V19.266H9.25032ZM11.0003 17.516C10.0338 17.516 9.25032 18.2995 9.25032 19.266H10.7503C10.7503 19.1279 10.8623 19.016 11.0003 19.016V17.516ZM2.66699 9.24935C1.70049 9.24935 0.916992 10.0328 0.916992 10.9993H2.41699C2.41699 10.8613 2.52892 10.7493 2.66699 10.7493V9.24935ZM2.73366 9.24935H2.66699V10.7493H2.73366V9.24935ZM4.48366 10.9993C4.48366 10.0328 3.70016 9.24935 2.73366 9.24935V10.7493C2.87173 10.7493 2.98366 10.8613 2.98366 10.9993H4.48366ZM2.73366 12.7493C3.70016 12.7493 4.48366 11.9658 4.48366 10.9993H2.98366C2.98366 11.1374 2.87173 11.2493 2.73366 11.2493V12.7493ZM2.66699 12.7493H2.73366V11.2493H2.66699V12.7493ZM0.916992 10.9993C0.916992 11.9658 1.70049 12.7493 2.66699 12.7493V11.2493C2.52892 11.2493 2.41699 11.1374 2.41699 10.9993H0.916992ZM19.267 9.24935C18.3005 9.24935 17.517 10.0329 17.517 10.9993H19.017C19.017 10.8613 19.1289 10.7493 19.267 10.7493V9.24935ZM19.3337 9.24935H19.267V10.7493H19.3337V9.24935ZM21.0837 10.9993C21.0837 10.0328 20.3002 9.24935 19.3337 9.24935V10.7493C19.4717 10.7493 19.5837 10.8613 19.5837 10.9993H21.0837ZM19.3337 12.7493C20.3002 12.7493 21.0837 11.9658 21.0837 10.9993H19.5837C19.5837 11.1374 19.4717 11.2493 19.3337 11.2493V12.7493ZM19.267 12.7493H19.3337V11.2493H19.267V12.7493ZM17.517 10.9993C17.517 11.9658 18.3005 12.7493 19.267 12.7493V11.2493C19.1289 11.2493 19.017 11.1374 19.017 10.9993H17.517ZM6.28776 3.81191C5.60434 3.12849 4.49631 3.12849 3.81289 3.81191L4.87355 4.87257C4.97118 4.77494 5.12947 4.77494 5.2271 4.87257L6.28776 3.81191ZM6.39609 3.92024L6.28776 3.81191L5.2271 4.87257L5.33544 4.98091L6.39609 3.92024ZM6.3961 6.39512C7.07951 5.7117 7.07951 4.60366 6.3961 3.92024L5.33543 4.9809C5.43307 5.07854 5.43307 5.23683 5.33543 5.33446L6.3961 6.39512ZM3.92122 6.39512C4.60464 7.07854 5.71268 7.07854 6.39609 6.39512L5.33544 5.33446C5.2378 5.43209 5.07951 5.43209 4.98188 5.33446L3.92122 6.39512ZM3.81289 6.28679L3.92122 6.39512L4.98188 5.33446L4.87355 5.22613L3.81289 6.28679ZM3.81289 3.81191C3.12947 4.49533 3.12947 5.60337 3.81289 6.28679L4.87355 5.22613C4.77592 5.12849 4.77592 4.9702 4.87355 4.87257L3.81289 3.81191ZM18.0794 15.6036C17.396 14.9202 16.288 14.9202 15.6046 15.6036L16.6652 16.6642C16.7628 16.5666 16.9211 16.5666 17.0188 16.6642L18.0794 15.6036ZM18.1878 15.7119L18.0794 15.6036L17.0188 16.6642L17.1271 16.7726L18.1878 15.7119ZM18.1878 18.1868C18.8712 17.5034 18.8712 16.3953 18.1878 15.7119L17.1271 16.7726C17.2247 16.8702 17.2247 17.0285 17.1271 17.1261L18.1878 18.1868ZM15.7129 18.1868C16.3963 18.8702 17.5043 18.8702 18.1878 18.1868L17.1271 17.1261C17.0295 17.2238 16.8712 17.2238 16.7735 17.1261L15.7129 18.1868ZM15.6046 18.0785L15.7129 18.1868L16.7735 17.1261L16.6652 17.0178L15.6046 18.0785ZM15.6046 15.6036C14.9211 16.287 14.9211 17.395 15.6046 18.0784L16.6652 17.0178C16.5676 16.9202 16.5676 16.7619 16.6652 16.6642L15.6046 15.6036Z" fill="white"/>
</svg>
