<svg width="20" height="20" viewBox="0 0 20 20" fill="none" xmlns="http://www.w3.org/2000/svg">
<path d="M4.16699 7.5V13.3333" stroke="white" stroke-width="1.5" stroke-linecap="round" stroke-linejoin="round"/>
<path fill-rule="evenodd" clip-rule="evenodd" d="M4.37533 7.08268C2.87955 7.08268 1.66699 5.87012 1.66699 4.37435C1.66699 2.87858 2.87955 1.66602 4.37533 1.66602C5.8711 1.66602 7.08366 2.87858 7.08366 4.37435C7.08366 5.87012 5.8711 7.08268 4.37533 7.08268Z" stroke="white" stroke-width="1.5" stroke-linecap="round" stroke-linejoin="round"/>
<path fill-rule="evenodd" clip-rule="evenodd" d="M4.16699 18.334C2.78628 18.334 1.66699 17.2147 1.66699 15.834C1.66699 14.4533 2.78628 13.334 4.16699 13.334C5.5477 13.334 6.66699 14.4533 6.66699 15.834C6.66699 17.2147 5.5477 18.334 4.16699 18.334Z" stroke="white" stroke-width="1.5" stroke-linecap="round" stroke-linejoin="round"/>
<path fill-rule="evenodd" clip-rule="evenodd" d="M15.833 18.334C14.4523 18.334 13.333 17.2147 13.333 15.834C13.333 14.4533 14.4523 13.334 15.833 13.334C17.2137 13.334 18.333 14.4533 18.333 15.834C18.333 17.2147 17.2137 18.334 15.833 18.334Z" stroke="white" stroke-width="1.5" stroke-linecap="round" stroke-linejoin="round"/>
<path d="M4.27539 7.5C4.65039 8.95833 5.98372 10.0417 7.55872 10.0333L10.4171 10.025C12.6004 10.0167 14.4587 11.4167 15.1421 13.3667" stroke="white" stroke-width="1.5" stroke-linecap="round" stroke-linejoin="round"/>
</svg>
