<svg width="20" height="20" viewBox="0 0 20 20" fill="none" xmlns="http://www.w3.org/2000/svg">
<path d="M8.75033 3.41602C8.75033 2.16602 8.21699 1.66602 6.89199 1.66602H3.52533C2.20033 1.66602 1.66699 2.16602 1.66699 3.41602V16.5827C1.66699 17.8327 2.20033 18.3327 3.52533 18.3327H6.89199C8.21699 18.3327 8.75033 17.8327 8.75033 16.5827V3.41602Z" stroke="white" stroke-width="1.5" stroke-linecap="round" stroke-linejoin="round"/>
<path d="M18.3333 3.41602C18.3333 2.16602 17.8 1.66602 16.475 1.66602H13.1083C11.7833 1.66602 11.25 2.16602 11.25 3.41602V10.7493C11.25 11.9993 11.7833 12.4993 13.1083 12.4993H16.475C17.8 12.4993 18.3333 11.9993 18.3333 10.7493V3.41602Z" stroke="white" stroke-width="1.5" stroke-linecap="round" stroke-linejoin="round"/>
</svg>
